<svg version="1.2" baseProfile="tiny-ps" xmlns="http://www.w3.org/2000/svg" viewBox="0 0 592 592" width="125" height="125">
	<title>Local Property Exper</title>
	<style>
		tspan { white-space:pre }
		.shp13 { fill: none;stroke: #d67d12;stroke-linecap:round;stroke-width: 12 }
		.shp14 { opacity: 0.102;fill: none;stroke: #d67d12;stroke-linecap:round;stroke-width: 60 }
		.shp15 { fill: none;stroke: #0fccd8;stroke-linecap:round;stroke-linejoin:round;stroke-width: 3 }
		.shp16 { fill: none;stroke: #0fccd8;stroke-linecap:round;stroke-width: 3 }
		.shp17 { fill: none;stroke: #0fccd8;stroke-linejoin:round;stroke-width: 3 }
	</style>
	<g id="Local Property Exper">
		<path id="&lt;Path&gt;" class="shp13" d="M527 296C527 423.58 423.58 527 296 527C168.42 527 65 423.58 65 296C65 168.42 168.42 65 296 65C423.58 65 527 168.42 527 296Z" />
		<path id="&lt;Path&gt;" class="shp14" d="M561.35 296C561.35 442.55 442.55 561.35 296 561.35C149.45 561.35 30.65 442.55 30.65 296C30.65 149.45 149.45 30.65 296 30.65C442.55 30.65 561.35 149.45 561.35 296Z" />
		<g id="&lt;Group&gt;">
			<g id="&lt;Group&gt;">
				<path id="&lt;Path&gt;" class="shp15" d="M171.55 264.42C171.45 263.05 171.35 261.69 171.25 260.32C170.54 250.43 176.24 240.98 185.55 237.57C189.2 236.24 193.06 234.3 196.82 231.5C200.81 228.53 203.73 225.29 205.82 222.5C227.76 224.39 239.74 238.36 241.78 264.41L241.78 276.37L241.78 286.18C241.78 304.8 226.05 319.9 206.66 319.9C187.27 319.9 171.55 304.8 171.55 286.18L171.55 276.37L171.55 264.41" />
				<path id="&lt;Path&gt;" class="shp16" d="M206.66 286.21L206.66 275.2" />
				<path id="&lt;Path&gt;" class="shp16" d="M206.66 286.21L211.21 286.21" />
				<path id="&lt;Path&gt;" class="shp16" d="M171.28 286.2C165.75 286.2 161.26 281.71 161.26 276.18C161.26 270.65 165.75 266.17 171.28 266.17" />
				<path id="&lt;Path&gt;" class="shp16" d="M241.78 266.17C247.31 266.17 251.79 270.65 251.79 276.18C251.79 281.71 247.31 286.2 241.78 286.2" />
				<path id="&lt;Path&gt;" class="shp15" d="M191.66 317.09L191.66 330.22" />
				<path id="&lt;Path&gt;" class="shp15" d="M221.66 317.09L221.66 330.22" />
				<path id="&lt;Path&gt;" class="shp15" d="M212.66 391.28L147.78 391.28C145.69 368.49 151.17 358.38 157 353.43C161.41 349.68 166.41 348.57 177.53 340.93C183.57 336.79 188.22 332.91 191.28 330.22" />
				<path id="&lt;Path&gt;" class="shp15" d="M200.66 391.28L265.55 391.28C267.64 368.49 262.15 358.38 256.33 353.43C251.91 349.68 246.92 348.57 235.79 340.93C229.75 336.79 225.1 332.91 222.05 330.22" />
				<g id="&lt;Group&gt;">
					<path id="&lt;Path&gt;" class="shp16" d="M190.26 322.64C181.79 323.38 177.01 324.97 166.29 328.11C160.09 319.01 148.19 298.47 148.95 271.11C149.24 260.89 150.31 222.27 180.17 206.88C193.21 200.17 206.24 200.29 213.43 201.11" />
					<path id="&lt;Path&gt;" class="shp17" d="M220.82 318.5C229.82 312.5 260.58 297.86 259.82 270.5C259.54 260.28 263.01 222.27 233.15 206.89C220.12 200.17 207.09 200.3 199.89 201.11" />
				</g>
				<path id="&lt;Path&gt;" class="shp15" d="M174.55 344.56C183.36 346.95 192.57 349.3 207.22 349.24C221.34 349.18 230.15 346.9 238.78 344.56L206.41 376.93L174.55 344.56Z" />
			</g>
			<g id="&lt;Group&gt;">
				<path id="&lt;Path&gt;" class="shp16" d="M426.95 268.78L426.95 255.18L426.95 244.03C426.95 222.85 408.32 205.68 385.34 205.68C362.36 205.68 343.72 222.85 343.72 244.03L343.72 255.18L343.72 268.78" />
				<path id="&lt;Path&gt;" class="shp15" d="M350.22 264.42L350.22 276.37L350.22 286.18C350.22 304.8 365.95 319.9 385.34 319.9C404.73 319.9 420.45 304.8 420.45 286.18L420.45 276.37L420.45 264.42C421.3 251.48 414.79 239.59 404.18 234.5C397.24 231.17 387.55 230.27 380.18 234.5C373.55 238.3 373.48 243.57 365.18 252.5C359.65 258.44 354.02 262.2 350.22 264.42Z" />
				<path id="&lt;Path&gt;" class="shp16" d="M385.34 286.21L385.34 275.2" />
				<path id="&lt;Path&gt;" class="shp16" d="M385.34 286.21L389.89 286.21" />
				<path id="&lt;Path&gt;" class="shp16" d="M349.95 286.2C344.42 286.2 339.94 281.71 339.94 276.18C339.94 270.65 344.42 266.17 349.95 266.17" />
				<path id="&lt;Path&gt;" class="shp16" d="M420.45 266.17C425.98 266.17 430.47 270.65 430.47 276.18C430.47 281.71 425.98 286.2 420.45 286.2" />
				<path id="&lt;Path&gt;" class="shp15" d="M370.34 317.09L370.34 330.22" />
				<path id="&lt;Path&gt;" class="shp15" d="M400.34 317.09L400.34 330.22" />
				<path id="&lt;Path&gt;" class="shp15" d="M391.34 391.28L326.45 391.28C324.36 368.49 329.85 358.38 335.67 353.43C340.09 349.68 345.08 348.57 356.21 340.93C362.25 336.79 366.9 332.91 369.95 330.22" />
				<path id="&lt;Path&gt;" class="shp15" d="M379.34 391.28L444.22 391.28C446.31 368.49 440.83 358.38 435 353.43C430.59 349.68 425.59 348.57 414.47 340.93C408.43 336.79 403.78 332.91 400.72 330.22" />
				<path id="&lt;Path&gt;" class="shp15" d="M353.22 344.56C362.03 346.95 371.25 349.3 385.9 349.24C400.02 349.18 408.83 346.9 417.45 344.56L385.09 376.93L353.22 344.56Z" />
			</g>
		</g>
	</g>
</svg>