<svg version="1.2" baseProfile="tiny-ps" xmlns="http://www.w3.org/2000/svg" viewBox="0 0 177 151" width="89" height="76">
	<title>Buying Experience</title>
	<style>
		tspan { white-space:pre }
		.shp0 { fill: none;stroke: #0fccd8;stroke-linecap:round;stroke-width: 3 }
	</style>
	<g id="Buying Experience">
		<g id="&lt;Group&gt;">
			<path id="&lt;Path&gt;" class="shp0" d="M34.69 101.45L34.69 34.69L2.18 2.17" />
			<path id="&lt;Path&gt;" class="shp0" d="M156.99 119L48.19 119C40.74 119 34.69 112.96 34.69 105.5L34.69 103" />
			<path id="&lt;Path&gt;" class="shp0" d="M34.69 94.66L158.32 94.66C165.78 94.66 171.82 88.62 171.82 81.16L174.82 34.69L51.5 34.69L51.5 64.67" />
			<path id="&lt;Path&gt;" class="shp0" d="M87 133.83C87 142.02 80.36 148.66 72.17 148.66C63.98 148.66 57.35 142.02 57.35 133.83C57.35 125.64 63.98 119 72.17 119C80.36 119 87 125.64 87 133.83Z" />
			<path id="&lt;Path&gt;" class="shp0" d="M171.82 133.83C171.82 142.02 165.18 148.66 156.99 148.66C148.81 148.66 142.17 142.02 142.17 133.83C142.17 125.64 148.81 119 156.99 119C165.18 119 171.82 125.64 171.82 133.83Z" />
			<path id="&lt;Path&gt;" class="shp0" d="M91.96 62.08L101.89 72" />
			<path id="&lt;Path&gt;" class="shp0" d="M114.55 53.41L101.89 72" />
		</g>
	</g>
</svg>