<svg version="1.2" baseProfile="tiny-ps" xmlns="http://www.w3.org/2000/svg" viewBox="0 0 244 194" width="35" height="30">
	<title>Page 1</title>
	<defs>
		<clipPath clipPathUnits="userSpaceOnUse" id="cp1">
			<path d="M0 0L244 0L244 194L0 194Z" />
		</clipPath>
	</defs>
	<style>
		tspan { white-space:pre }
		.shp29 { fill: #0fcbd7 }
	</style>
	<g id="Page 1" clip-path="url(#cp1)">
		<path id="Path 1" class="shp29" d="M23.36 59.75C26.43 61.92 35.71 68.36 51.19 79.09C66.68 89.82 78.53 98.08 86.77 103.87C87.67 104.5 89.6 105.89 92.54 108.01C95.48 110.14 97.92 111.86 99.87 113.17C101.81 114.49 104.17 115.95 106.93 117.59C109.69 119.22 112.3 120.44 114.74 121.25C117.19 122.07 119.45 122.47 121.53 122.47L121.8 122.47C123.89 122.47 126.15 122.07 128.6 121.25C131.04 120.44 133.64 119.21 136.4 117.59C139.16 115.95 141.51 114.49 143.46 113.17C145.41 111.86 147.85 110.14 150.79 108.01C153.74 105.89 155.66 104.5 156.57 103.87C164.89 98.07 186.07 83.37 220.12 59.74C226.73 55.12 232.24 49.56 236.68 43.04C241.11 36.52 243.34 29.69 243.34 22.54C243.34 16.56 241.18 11.45 236.88 7.19C232.59 2.93 227.49 0.81 221.61 0.81L21.73 0.81C14.75 0.81 9.39 3.16 5.63 7.87C1.88 12.58 0 18.46 0 25.53C0 31.23 2.49 37.41 7.47 44.06C12.44 50.71 17.74 55.95 23.36 59.75ZM229.75 74.27C200.06 94.36 177.52 109.98 162.13 121.11C156.97 124.92 152.78 127.89 149.57 130.01C146.36 132.14 142.08 134.31 136.74 136.53C131.4 138.75 126.42 139.86 121.8 139.86L121.53 139.86C116.91 139.86 111.93 138.75 106.59 136.53C101.25 134.31 96.97 132.14 93.76 130.01C90.55 127.89 86.36 124.92 81.2 121.11C68.98 112.15 46.48 96.54 13.71 74.27C8.55 70.83 3.98 66.89 0 62.46L0 170.27C0 176.25 2.12 181.36 6.38 185.62C10.64 189.87 15.75 192 21.73 192L221.61 192C227.58 192 232.7 189.87 236.95 185.62C241.21 181.36 243.34 176.25 243.34 170.27L243.34 62.46C239.44 66.8 234.91 70.74 229.75 74.27Z" />
	</g>
</svg>