<svg version="1.2" baseProfile="tiny-ps" xmlns="http://www.w3.org/2000/svg" viewBox="0 0 220 162" width="60" height="50">
	<g id="Full Support">
		<g id="&lt;Group&gt;">
			<path id="&lt;Path&gt;" class="shp0" d="M139.75 89.49L200.97 89.49C210.32 89.49 217.96 81.85 217.96 72.51L217.96 18.71C217.96 9.36 210.32 1.72 200.97 1.72L135.93 1.72C126.58 1.72 118.94 9.36 118.94 18.71L118.94 72.51L118.94 107.43L133.3 92.27C134.98 90.5 137.31 89.49 139.75 89.49Z" />
			<path id="&lt;Path&gt;" class="shp1" d="M157.59 34.99C157.59 29.02 162.48 24.13 168.45 24.13L168.45 24.13C174.42 24.13 179.3 29.02 179.3 34.99L179.3 34.99C179.3 40.96 174.42 45.84 168.45 45.84L168.45 45.84L168.45 61.71" />
			<path id="&lt;Path&gt;" class="shp2" d="M169.98 69.78C169.98 70.63 169.3 71.31 168.45 71.31C167.6 71.31 166.92 70.63 166.92 69.78C166.92 68.93 167.6 68.25 168.45 68.25C169.3 68.25 169.98 68.93 169.98 69.78Z" />
			<g id="&lt;Group&gt;">
				<path id="&lt;Path&gt;" class="shp0" d="M80.25 142.35L19.03 142.35C9.68 142.35 2.04 134.71 2.04 125.36L2.04 71.56C2.04 62.22 9.68 54.57 19.03 54.57L84.07 54.57C93.42 54.57 101.06 62.22 101.06 71.56L101.06 125.36L101.06 160.28L86.7 145.13C85.02 143.35 82.69 142.35 80.25 142.35Z" />
				<g id="&lt;Group&gt;">
					<path id="&lt;Path&gt;" class="shp2" d="M35.86 97.16C35.86 98.01 35.17 98.7 34.33 98.7C33.48 98.7 32.8 98.01 32.8 97.16C32.8 96.32 33.48 95.63 34.33 95.63C35.17 95.63 35.86 96.32 35.86 97.16Z" />
					<path id="&lt;Path&gt;" class="shp2" d="M70.31 97.16C70.31 98.01 69.62 98.7 68.77 98.7C67.93 98.7 67.24 98.01 67.24 97.16C67.24 96.32 67.93 95.63 68.77 95.63C69.62 95.63 70.31 96.32 70.31 97.16Z" />
					<path id="&lt;Path&gt;" class="shp2" d="M53.08 97.16C53.08 98.01 52.4 98.7 51.55 98.7C50.7 98.7 50.02 98.01 50.02 97.16C50.02 96.32 50.7 95.63 51.55 95.63C52.4 95.63 53.08 96.32 53.08 97.16Z" />
				</g>
			</g>
		</g>
	</g>
</svg>