<svg version="1.2" baseProfile="tiny-ps" xmlns="http://www.w3.org/2000/svg" viewBox="0 0 171 171" width="60" height="50">
	<g id="Selling for Highest Price">
		<g id="&lt;Group&gt;">
			<path id="&lt;Path&gt;" class="shp0" d="M166.08 63.06C168.04 70.17 169.09 77.67 169.09 85.4C169.09 131.65 131.61 169.13 85.37 169.13C39.13 169.13 1.64 131.65 1.64 85.4C1.64 39.16 39.13 1.68 85.37 1.68C96.57 1.68 107.25 3.88 117.02 7.87" />
			<g id="&lt;Group&gt;">
				<g id="&lt;Group&gt;">
					<path id="&lt;Path&gt;" class="shp0" d="M60.3 85.4C60.3 67.39 72.37 52.78 87.27 52.78C91 52.78 94.54 53.7 97.77 55.35" />
					<path id="&lt;Path&gt;" class="shp0" d="M60.3 85.4C60.3 103.42 72.37 118.03 87.27 118.03C91 118.03 94.54 117.11 97.77 115.46" />
				</g>
				<g id="&lt;Group&gt;">
					<path id="&lt;Path&gt;" class="shp0" d="M52.21 81.54L79.03 81.54" />
					<path id="&lt;Path&gt;" class="shp0" d="M52.21 89.27L79.03 89.27" />
				</g>
			</g>
			<g id="&lt;Group&gt;">
				<path id="&lt;Path&gt;" class="shp0" d="M146.89 9.03L146.89 52.63" />
				<path id="&lt;Path&gt;" class="shp0" d="M146.89 9.03L133.34 28.09" />
				<path id="&lt;Path&gt;" class="shp0" d="M160.43 28.09L146.89 9.03" />
			</g>
		</g>
	</g>
</svg>