<svg version="1.2" baseProfile="tiny-ps" xmlns="http://www.w3.org/2000/svg" viewBox="0 0 1536 1536" width="15" height="15">
	<title>Layer 1</title>
	<g id="Layer 1">
		<path id="&lt;Compound Path&gt;" fill-rule="evenodd" class="shp30" d="M1120.98 1536L415.02 1536C186.18 1536 0 1349.82 0 1120.98L0 415.02C0 186.18 186.18 0 415.02 0L1120.98 0C1349.82 0 1536 186.18 1536 415.02L1536 1120.98C1536 1349.82 1349.82 1536 1120.98 1536ZM415.02 124.09C254.6 124.09 124.09 254.6 124.09 415.02L124.09 1120.98C124.09 1281.4 254.6 1411.91 415.02 1411.91L1120.98 1411.91C1281.4 1411.91 1411.91 1281.4 1411.91 1120.98L1411.91 415.02C1411.91 254.6 1281.4 124.09 1120.98 124.09L415.02 124.09Z" />
		<path id="&lt;Compound Path&gt;" fill-rule="evenodd" class="shp30" d="M770.32 1109.44C696.98 1109.44 625.85 1086.08 565.87 1041.58C491.97 986.78 443.85 906.47 430.35 815.47C416.85 724.47 439.61 633.65 494.42 559.76C549.22 485.86 629.53 437.74 720.53 424.24C754.06 419.27 788.05 419.27 821.58 424.24C895.21 435.16 961.96 468.76 1014.6 521.4C1067.24 574.04 1100.84 640.78 1111.76 714.42C1125.25 805.43 1102.5 896.24 1047.69 970.13C992.88 1044.02 912.58 1092.15 821.58 1105.65C804.45 1108.19 787.33 1109.44 770.32 1109.44ZM771.05 544.61C760.25 544.61 749.46 545.4 738.74 547C680.52 555.63 629.15 586.42 594.08 633.69C559.02 680.96 544.47 739.05 553.1 797.27C561.73 855.48 592.52 906.85 639.79 941.92C687.06 976.98 745.16 991.54 803.37 982.9C923.55 965.08 1006.82 852.81 989 732.63C974.67 635.93 900.07 561.33 803.37 547C792.65 545.4 781.85 544.61 771.05 544.61Z" />
		<path id="&lt;Path&gt;" class="shp30" d="M1156.27 441.77C1139.95 441.77 1123.95 435.15 1112.4 423.6C1100.85 412.05 1094.23 396.08 1094.23 379.73C1094.23 363.37 1100.85 347.41 1112.4 335.85C1123.95 324.3 1139.95 317.68 1156.27 317.68C1172.6 317.68 1188.59 324.3 1200.15 335.85C1211.7 347.41 1218.32 363.4 1218.32 379.73C1218.32 396.05 1211.7 412.05 1200.15 423.6C1188.59 435.15 1172.6 441.77 1156.27 441.77Z" />
	</g>
</svg>