<svg version="1.2" baseProfile="tiny-ps" xmlns="http://www.w3.org/2000/svg" viewBox="0 0 123 189" width="60" height="50">
	<g id="Instruct Moovingo">
		<g id="&lt;Group&gt;">
			<path id="&lt;Path&gt;" class="shp0" d="M103.28 64.78L103.28 51.18L103.28 40.03C103.28 18.85 84.64 1.68 61.66 1.68C38.68 1.68 20.05 18.85 20.05 40.03L20.05 51.18L20.05 64.78" />
			<path id="&lt;Path&gt;" class="shp1" d="M96.78 60.41L96.78 72.37L96.78 82.18C96.78 100.8 81.05 115.9 61.66 115.9C42.27 115.9 26.55 100.8 26.55 82.18L26.55 72.37L26.55 60.41C55.7 59.88 72.44 53 76.78 39.78C82.59 52.97 89.26 59.85 96.78 60.41Z" />
			<path id="&lt;Path&gt;" class="shp0" d="M61.66 82.21L61.66 71.2" />
			<path id="&lt;Path&gt;" class="shp0" d="M61.66 82.21L66.21 82.21" />
			<path id="&lt;Path&gt;" class="shp0" d="M26.28 82.2C20.75 82.2 16.26 77.71 16.26 72.18C16.26 66.65 20.75 62.17 26.28 62.17" />
			<path id="&lt;Path&gt;" class="shp0" d="M96.78 62.17C102.31 62.17 106.79 66.65 106.79 72.18C106.79 77.71 102.31 82.2 96.78 82.2" />
			<path id="&lt;Path&gt;" class="shp1" d="M46.66 113.09L46.66 126.22" />
			<path id="&lt;Path&gt;" class="shp1" d="M76.66 113.09L76.66 126.22" />
			<path id="&lt;Path&gt;" class="shp1" d="M67.66 187.28L2.78 187.28C0.69 164.49 6.17 154.38 12 149.43C16.41 145.68 21.41 144.57 32.53 136.93C38.57 132.79 43.22 128.91 46.28 126.22" />
			<path id="&lt;Path&gt;" class="shp1" d="M55.66 187.28L120.55 187.28C122.64 164.49 117.15 154.38 111.33 149.43C106.91 145.68 101.92 144.57 90.79 136.93C84.75 132.79 80.1 128.91 77.05 126.22" />
			<path id="&lt;Path&gt;" class="shp1" d="M29.55 140.56C38.36 142.95 47.57 145.3 62.22 145.24C76.34 145.18 85.15 142.9 93.78 140.56L61.41 172.93L29.55 140.56Z" />
		</g>
	</g>
</svg>