<svg version="1.2" baseProfile="tiny-ps" xmlns="http://www.w3.org/2000/svg" viewBox="0 0 247 128" width="60" height="50">
	<g id="Instant Viewings, Feedback &amp; Offers">
		<g id="&lt;Group&gt;">
			<path id="&lt;Path&gt;" class="shp0" d="M120.22 40.41L112.83 19.25C111.36 15.03 108.07 11.71 103.86 10.21C92.45 6.15 77.22 2.4 59.2 2.37C42.23 2.35 27.72 5.63 16.53 9.39C11.02 11.24 7.08 16.08 6.48 21.86C5.03 35.67 3.58 49.47 2.13 63.28C2.02 64.31 2.03 65.35 2.14 66.39C3.58 79.87 5.02 93.35 6.46 106.83C7.08 112.6 11.01 117.43 16.51 119.27C27.71 123.04 42.22 126.32 59.2 126.3C77.22 126.27 92.45 122.52 103.86 118.46C108.07 116.96 111.36 113.64 112.83 109.42L120.22 88.26" />
			<path id="&lt;Path&gt;" class="shp0" d="M120.22 40.79L220.79 40.79C233.86 40.79 244.56 51.49 244.56 64.56L244.56 64.56C244.56 77.64 233.86 88.33 220.79 88.33L120.22 88.33" />
			<path id="&lt;Path&gt;" class="shp0" d="M38.11 52.56C44.74 52.56 50.12 57.93 50.12 64.56C50.12 71.19 44.74 76.57 38.11 76.57C31.48 76.57 26.11 71.19 26.11 64.56C26.11 57.93 31.48 52.56 38.11 52.56Z" />
			<path id="&lt;Path&gt;" class="shp0" d="M120.22 69.81L221.13 69.81" />
		</g>
	</g>
</svg>