<svg version="1.2" baseProfile="tiny-ps" xmlns="http://www.w3.org/2000/svg" viewBox="0 0 388 388" width="35" height="35" fill="white">
  <g id="Layer 1">
		<g id="&lt;Group&gt;">
			<path id="&lt;Path&gt;" class="shp26" d="M140.32 121.65L140.13 121.47L139.85 121.16C127.59 107.37 115.66 101.81 106.24 105.49C97.47 108.92 91.37 120.13 91.41 132.77L91.41 251.26C112.52 229.08 147.81 192.08 177.52 160.96L140.11 121.85L140.32 121.65Z" />
			<path id="&lt;Path&gt;" class="shp26" d="M278.99 105.49C269.58 101.81 257.64 107.37 245.39 121.16C245.2 121.37 245.13 121.45 245.18 121.4L244.92 121.65L245.12 121.85L213.35 155.07L207.72 160.96C211.59 165.02 215.56 169.17 219.57 173.38C246.38 201.47 275.46 231.97 293.83 251.26L293.83 132.74C293.86 120.13 287.76 108.92 278.99 105.49Z" />
			<path id="&lt;Compound Path&gt;" fill-rule="evenodd" class="shp26" d="M383.34 194.42C383.34 301.49 297.74 388.28 192.15 388.28C86.56 388.28 0.96 301.49 0.96 194.42C0.96 87.35 86.56 0.55 192.15 0.55C297.74 0.55 383.34 87.35 383.34 194.42ZM315.21 132.77C315.27 111.06 303.81 91.96 286.69 85.26C276.14 81.14 254.74 78.42 229.73 106.4C227.2 108.98 212.31 124.53 192.62 145.15C172.92 124.53 158.03 108.98 155.51 106.4C130.49 78.42 109.09 81.14 98.54 85.26C81.43 91.96 69.97 111.06 70.02 132.8C70.02 132.78 70.02 253.44 70.02 274.92C70.97 279.11 72.95 282.86 77.12 285.3C81.86 288.08 87.29 285.36 92.28 281.65L192.62 176.75L192.62 176.75L204.61 189.28L292.16 280.82C297.44 284.94 303.32 288.28 308.41 285.3C312.18 283.09 314.17 279.81 315.21 276.1L315.21 132.77Z" />
		</g>
  </g>
</svg>