<svg version="1.2" baseProfile="tiny-ps" xmlns="http://www.w3.org/2000/svg" viewBox="0 0 1789 388" width="180" height="40">
	<title>Layer 1</title>
	<style>
		tspan { white-space:pre }
		.shp31 { fill: #0fccda }
		.shp32 { fill: #ffffff }
	</style>
	<g id="Layer 1">
		<path id="&lt;Path&gt;" class="shp31" d="M388.19 193.92C388.19 300.99 301.39 387.78 194.32 387.78C87.26 387.78 0.46 300.99 0.46 193.92C0.46 86.85 87.26 0.05 194.32 0.05C301.39 0.05 388.19 86.85 388.19 193.92Z" />
		<g id="&lt;Group&gt;">
			<path id="&lt;Compound Path&gt;" fill-rule="evenodd" class="shp32" d="M295.73 280.32L206.95 188.78L194.8 176.25L194.79 176.25L93.06 281.15C88 284.86 82.49 287.58 77.69 284.8C73.46 282.36 71.45 278.61 70.49 274.42C70.49 252.94 70.49 132.28 70.49 132.3C70.43 110.56 82.05 91.46 99.41 84.76C110.1 80.64 131.8 77.92 157.17 105.9C159.73 108.48 174.82 124.03 194.79 144.65C214.77 124.03 229.86 108.48 232.42 105.9C257.79 77.92 279.49 80.64 290.18 84.76C307.54 91.46 319.16 110.56 319.1 132.27L319.1 275.6C318.04 279.31 316.03 282.59 312.21 284.8C307.05 287.78 301.08 284.44 295.73 280.32ZM179.49 160.46L141.56 121.35L141.76 121.15L141.57 120.97L141.29 120.66C128.86 106.87 116.76 101.31 107.21 104.99C98.32 108.42 92.14 119.63 92.17 132.27L92.17 250.76C113.58 228.58 149.36 191.58 179.49 160.46ZM297.42 132.24C297.45 119.63 291.27 108.42 282.38 104.99C272.83 101.31 260.73 106.87 248.3 120.66C248.12 120.86 248.05 120.94 248.09 120.91L247.83 121.15L248.03 121.35L215.82 154.57L210.1 160.46C214.03 164.52 218.05 168.67 222.13 172.88C249.31 200.97 278.8 231.47 297.42 250.76L297.42 132.24ZM248.09 120.9C248.09 120.9 248.09 120.91 248.09 120.91L248.09 120.9Z" />
		</g>
		<g id="&lt;Group&gt;">
			<path id="&lt;Path&gt;" class="shp31" d="M623.65 91.96L575.84 203.17L530.16 93C521.58 82.15 508.93 75.42 495.07 74.39L482.5 78.5L467.17 284.5L507.84 285.17L516.5 151.83L556.5 240.5L593.84 241.17L635.17 147.17L644.91 286.63L685.84 285.17L671.74 76.93C654.92 72.28 634.73 78.58 623.65 91.96Z" />
			<path id="&lt;Compound Path&gt;" fill-rule="evenodd" class="shp31" d="M838.92 158.1C853.09 172.52 860.17 190.74 860.17 212.77C860.17 234.98 853.02 253.38 838.71 267.99C824.4 282.6 806.4 289.9 784.68 289.9C771.25 289.9 758.44 286.85 746.25 280.78C734.06 274.7 724.79 265.78 718.44 254.03C712.09 242.28 708.92 227.97 708.92 211.11C708.92 198.21 712.09 185.72 718.44 173.65C724.79 161.58 733.78 152.37 745.42 146C757.06 139.65 770.06 136.46 784.41 136.46C806.58 136.46 824.75 143.68 838.92 158.1ZM820.11 212.91C820.11 198.52 816.69 187.45 809.86 179.7C803.03 171.95 794.57 168.08 784.48 168.08C774.39 168.08 765.9 171.95 759.03 179.7C752.15 187.45 748.71 198.61 748.71 213.18C748.71 227.76 752.15 238.92 759.03 246.66C765.9 254.41 774.39 258.29 784.48 258.29C794.57 258.29 803.03 254.41 809.86 246.66C816.69 238.92 820.11 227.66 820.11 212.91Z" />
			<path id="&lt;Compound Path&gt;" fill-rule="evenodd" class="shp31" d="M1011.88 158.1C1026.05 172.52 1033.13 190.74 1033.13 212.77C1033.13 234.98 1025.98 253.38 1011.67 267.99C997.36 282.6 979.35 289.9 957.64 289.9C944.21 289.9 931.4 286.85 919.21 280.78C907.01 274.7 897.74 265.78 891.4 254.03C885.05 242.28 881.88 227.97 881.88 211.11C881.88 198.21 885.05 185.72 891.4 173.65C897.74 161.58 906.74 152.37 918.38 146C930.02 139.65 943.01 136.46 957.37 136.46C979.54 136.46 997.71 143.68 1011.88 158.1ZM993.07 212.91C993.07 198.52 989.65 187.45 982.82 179.7C975.99 171.95 967.52 168.08 957.44 168.08C947.34 168.08 938.86 171.95 931.98 179.7C925.1 187.45 921.67 198.61 921.67 213.18C921.67 227.76 925.1 238.92 931.98 246.66C938.86 254.41 947.34 258.29 957.44 258.29C967.52 258.29 975.99 254.41 982.82 246.66C989.65 238.92 993.07 227.66 993.07 212.91Z" />
			<path id="&lt;Path&gt;" class="shp31" d="M1148.15 145.07C1139.08 176.21 1120.75 239.06 1119.16 243.83L1090.66 146.68C1079.26 134.52 1059.27 133.18 1043.59 139.9L1095.83 287.17L1141.83 285.83L1192.69 138.83C1177.75 132.97 1159.34 134.3 1148.15 145.07Z" />
			<path id="&lt;Path&gt;" class="shp31" d="M1232.38 136L1216.5 136L1216.5 261.89C1218.57 274.39 1227.66 285.92 1242.91 288.13L1259.27 288.13L1259.27 160.38C1256.18 147.54 1245.47 137.65 1232.38 136Z" />
			<path id="&lt;Path&gt;" class="shp31" d="M1427.83 152.92C1424.13 148.13 1418.68 144.19 1411.47 141.1C1404.26 138.01 1396.3 136.46 1387.59 136.46C1367.83 136.46 1351.45 144.75 1338.43 161.3L1338.43 151.72C1336.46 146.74 1333.74 143.86 1327.12 141.88C1324.68 141.15 1322.06 140.39 1319.35 139.74L1301.92 139.74L1301.92 286.63L1341.47 286.63L1341.47 220.11C1341.47 203.69 1342.47 192.45 1344.48 186.36C1346.48 180.28 1350.18 175.39 1355.58 171.7C1360.98 168.01 1367.08 166.17 1373.87 166.17C1379.18 166.17 1383.72 167.46 1387.49 170.05C1391.26 172.63 1393.99 176.25 1395.66 180.9C1397.34 185.56 1398.18 195.81 1398.18 211.67L1398.18 286.63L1437.73 286.63L1437.73 195.37C1437.73 184.03 1437.01 175.32 1435.55 169.24C1434.1 163.16 1431.53 157.72 1427.83 152.92Z" />
			<path id="&lt;Compound Path&gt;" fill-rule="evenodd" class="shp31" d="M1576.3 139.88L1612.55 139.88L1612.55 277.71C1612.55 295.84 1611.12 309.38 1608.25 318.35C1605.39 327.32 1601.37 334.36 1596.2 339.47C1591.02 344.58 1584.12 348.58 1575.48 351.47C1566.84 354.37 1555.92 355.81 1542.71 355.81C1517.76 355.81 1500.07 351.33 1489.63 342.38C1487.33 340.41 1485.3 338.32 1483.51 336.12C1482.18 333.99 1481.16 331.74 1480.61 329.39C1478.57 320.51 1483 311.3 1489.33 305.35L1492.54 305.76C1494.58 308.67 1498.23 310.86 1501 312.62C1505.68 315.62 1510.69 319.81 1516 321.39C1520.9 322.84 1526.91 324 1532.82 324.09C1535.27 324.53 1538.03 324.76 1541.13 324.76C1551.3 324.76 1558.93 323.17 1564.01 320C1567.43 317.88 1570.02 314.45 1571.78 309.74C1572.98 306.36 1573.58 300.15 1573.58 291.1L1573.74 268.7C1562.12 285.19 1547.45 293.43 1529.72 293.43C1509.96 293.43 1494.31 284.71 1482.77 267.27C1473.72 253.49 1469.2 236.34 1469.2 215.81C1469.2 190.09 1475.13 170.43 1487 156.85C1498.86 143.26 1513.61 136.46 1531.25 136.46C1549.44 136.46 1564.46 144.79 1576.3 161.45L1576.3 139.88ZM1574.12 214.52C1574.12 198.61 1571 186.81 1564.74 179.09C1558.48 171.37 1550.57 167.52 1541 167.52C1531.71 167.52 1524.05 171.3 1518.03 178.87C1512 186.44 1508.99 197.99 1508.99 213.51C1508.99 229.81 1512 241.75 1518.03 249.31C1524.05 256.88 1531.48 260.67 1540.31 260.67C1549.79 260.67 1557.79 256.79 1564.33 249.02C1570.86 241.26 1574.12 229.76 1574.12 214.52Z" />
			<path id="&lt;Compound Path&gt;" fill-rule="evenodd" class="shp31" d="M1788.14 212.77C1788.14 234.98 1780.99 253.38 1766.68 267.99C1752.37 282.6 1734.36 289.9 1712.65 289.9C1699.22 289.9 1686.4 286.85 1674.21 280.78C1662.02 274.7 1652.75 265.78 1646.41 254.03C1640.06 242.28 1636.88 227.97 1636.88 211.11C1636.88 198.21 1640.06 185.72 1646.41 173.65C1652.75 161.58 1661.75 152.37 1673.39 146C1685.03 139.65 1698.02 136.46 1712.38 136.46C1734.54 136.46 1752.71 143.68 1766.89 158.1C1781.05 172.52 1788.14 190.74 1788.14 212.77ZM1748.08 212.91C1748.08 198.52 1744.66 187.45 1737.83 179.7C1730.99 171.95 1722.53 168.08 1712.44 168.08C1702.35 168.08 1693.87 171.95 1686.99 179.7C1680.11 187.45 1676.67 198.61 1676.67 213.18C1676.67 227.76 1680.11 238.92 1686.99 246.66C1693.87 254.41 1702.35 258.29 1712.44 258.29C1722.53 258.29 1730.99 254.41 1737.83 246.66C1744.66 238.92 1748.08 227.66 1748.08 212.91Z" />
			<path id="&lt;Path&gt;" class="shp31" d="M1235.17 110.5C1248.05 110.5 1258.5 100.05 1258.5 87.17C1258.5 74.28 1248.05 63.83 1235.17 63.83C1222.28 63.83 1211.83 74.28 1211.83 87.17C1211.83 100.05 1222.28 110.5 1235.17 110.5Z" />
		</g>
	</g>
</svg>