<svg version="1.2" baseProfile="tiny-ps" xmlns="http://www.w3.org/2000/svg" viewBox="0 0 250 205" width="250" height="205">
	<title>Layer 1</title>
	<style>
		tspan { white-space:pre }
		.shp22 { fill: #ffffff }
	</style>
	<g id="Layer 1">
		<g id="&lt;Group&gt;">
			<path id="&lt;Compound Path&gt;" fill-rule="evenodd" class="shp22" d="M226.23 198.82L137.45 107.28L125.3 94.75L125.29 94.75L23.56 199.65C18.5 203.36 12.99 206.08 8.19 203.3C3.96 200.86 1.95 197.11 0.99 192.92C0.99 171.44 0.99 50.78 0.99 50.8C0.93 29.06 12.55 9.96 29.91 3.26C40.6 -0.86 62.3 -3.58 87.67 24.4C90.23 26.98 105.32 42.53 125.29 63.15C145.27 42.53 160.36 26.98 162.92 24.4C188.29 -3.58 209.99 -0.86 220.68 3.26C238.04 9.96 249.66 29.06 249.6 50.77L249.6 194.1C248.54 197.81 246.53 201.09 242.71 203.3C237.55 206.28 231.58 202.94 226.23 198.82ZM109.99 78.96L72.06 39.85L72.26 39.65L72.07 39.47L71.79 39.16C59.36 25.37 47.26 19.81 37.71 23.49C28.82 26.92 22.64 38.13 22.67 50.77L22.67 169.26C44.08 147.08 79.86 110.08 109.99 78.96ZM227.92 50.74C227.95 38.13 221.77 26.92 212.88 23.49C203.33 19.81 191.23 25.37 178.8 39.16C178.62 39.36 178.55 39.44 178.59 39.41L178.33 39.65L178.53 39.85L146.32 73.07L140.6 78.96C144.53 83.02 148.55 87.17 152.63 91.38C179.81 119.47 209.3 149.97 227.92 169.26L227.92 50.74ZM178.59 39.4C178.59 39.4 178.59 39.41 178.59 39.41L178.59 39.4Z" />
		</g>
	</g>
</svg>