<svg version="1.2" baseProfile="tiny-ps" xmlns="http://www.w3.org/2000/svg" viewBox="0 0 388 388" width="20" height="20" stroke="white" fill="white" strokeWidth="3">
	<g id="Layer 1">
		<g id="&lt;Group&gt;">
			<path id="&lt;Path&gt;" className="fill-current text-teal" d="M387.86 194C387.86 301.07 301.07 387.86 194 387.86C86.93 387.86 0.14 301.07 0.14 194C0.14 86.93 86.93 0.14 194 0.14C301.07 0.14 387.86 86.93 387.86 194Z" />
			<g id="&lt;Group&gt;">
				<path id="&lt;Compound Path&gt;" fill-rule="evenodd" class="" d="M295.41 280.41L206.63 188.86L194.48 176.33L194.47 176.33L92.73 281.23C87.67 284.94 82.17 287.66 77.36 284.88C73.13 282.44 71.12 278.7 70.17 274.5C70.17 253.03 70.17 132.36 70.17 132.39C70.11 110.64 81.73 91.54 99.08 84.85C109.78 80.72 131.48 78 156.84 105.98C159.4 108.56 174.5 124.11 194.47 144.73C214.44 124.12 229.54 108.56 232.1 105.98C257.46 78 279.17 80.72 289.86 84.85C307.22 91.54 318.84 110.64 318.78 132.35L318.78 275.68C317.72 279.4 315.71 282.67 311.88 284.88C306.72 287.87 300.76 284.52 295.41 280.41ZM179.16 160.54L141.23 121.43L141.44 121.24L141.25 121.06L140.96 120.74C128.54 106.95 116.43 101.39 106.89 105.08C98 108.5 91.81 119.71 91.85 132.35L91.85 250.84C113.25 228.66 149.04 191.66 179.16 160.54ZM297.1 132.32C297.13 119.71 290.95 108.5 282.06 105.08C272.51 101.39 260.41 106.95 247.98 120.74C247.8 120.94 247.73 121.02 247.76 120.99L247.5 121.23L247.71 121.43L215.5 154.65L209.78 160.54C213.71 164.6 217.73 168.75 221.8 172.96C248.99 201.05 278.48 231.55 297.1 250.84L297.1 132.32ZM247.77 120.98C247.77 120.99 247.77 120.99 247.76 120.99L247.77 120.98Z" />
			</g>
		</g>
	</g>
</svg>