<svg version="1.2" baseProfile="tiny-ps" xmlns="http://www.w3.org/2000/svg" viewBox="0 0 202 175" width="60" height="50">
	<g id="Personal Service">
		<g id="&lt;Group&gt;">
			<path id="&lt;Path&gt;" class="shp0" d="M99.62 140.62L73.95 151.09C68.26 153.41 65.51 159.97 67.83 165.66L67.83 165.66C70.15 171.35 76.7 174.1 82.39 171.78L127.97 153.2C159.63 141.26 176.31 129.03 178.01 116.52" />
			<path id="&lt;Path&gt;" class="shp0" d="M102.97 139.26L57.39 157.85C51.7 160.17 45.14 157.41 42.82 151.72L42.82 151.72C40.5 146.03 43.26 139.48 48.95 137.16L88.77 120.92" />
			<path id="&lt;Path&gt;" class="shp0" d="M88.96 121.4L43.38 139.99C37.69 142.31 31.14 139.55 28.82 133.86L28.82 133.86C26.5 128.17 29.26 121.62 34.95 119.3L80.53 100.71" />
			<path id="&lt;Path&gt;" class="shp0" d="M80.53 100.71L43.19 115.94C37.5 118.26 30.94 115.5 28.62 109.81L28.62 109.81C26.3 104.12 29.06 97.57 34.75 95.25L72.09 80.03" />
			<path id="&lt;Path&gt;" class="shp0" d="M196.25 110.09L182.14 115.85C179.11 117.08 175.61 115.61 174.37 112.58L145.89 42.73C144.65 39.7 146.12 36.21 149.16 34.97L163.27 29.21C166.31 27.98 169.8 29.45 171.04 32.48L199.52 102.32C200.76 105.36 199.29 108.85 196.25 110.09Z" />
			<path id="&lt;Path&gt;" class="shp0" d="M19.74 88.28L5.69 82.37C2.67 81.1 1.24 77.59 2.51 74.57L31.75 5.04C33.02 2.02 36.54 0.59 39.56 1.86L53.6 7.77C56.62 9.04 58.06 12.55 56.79 15.57L27.54 85.1C26.27 88.12 22.76 89.55 19.74 88.28Z" />
			<path id="&lt;Path&gt;" class="shp0" d="M99.67 45.95C94.49 69.56 78.15 75.58 50.66 64.02" />
			<path id="&lt;Path&gt;" class="shp0" d="M56.79 15.57C62.26 9.59 69.05 8.3 77.17 11.71L132.96 35.18C138.62 37.57 141.31 44.15 138.92 49.81L138.92 49.81C136.54 55.48 129.96 58.16 124.29 55.78L84.66 39.1" />
		</g>
	</g>
</svg>