<svg version="1.2" baseProfile="tiny-ps" xmlns="http://www.w3.org/2000/svg" viewBox="0 0 1551 376" width="380" height="94">
	<title>Phone</title>
	<style>
		tspan { white-space:pre }
		.shp0 { fill: none;stroke: #0fccd8;stroke-width: 3 }
		.shp7 { fill: #d67d12 }
		.shp8 { fill: none;stroke: #d67d12;stroke-linecap:round;stroke-width: 3 }
		.shp3 { fill: #128bd6 }
		.shp4 { fill: none;stroke: #128bd6;stroke-linecap:round;stroke-width: 3 }
		.shp5 { fill: #12d66f }
		.shp6 { fill: none;stroke: #12d66f;stroke-linecap:round;stroke-width: 3 }
	</style>
	<g id="Phone">
		<path id="&lt;Path&gt;" class="shp0" d="M831.8 374L719.32 374C712.69 374 707.31 368.62 707.31 361.99L707.31 175.51C707.31 168.88 712.69 163.5 719.32 163.5L831.8 163.5C838.43 163.5 843.81 168.88 843.81 175.51L843.81 361.99C843.81 368.62 838.43 374 831.8 374Z" />
		<path id="&lt;Path&gt;" class="shp0" d="M750.44 174.25L800.69 174.25" />
		<path id="&lt;Path&gt;" class="shp0" d="M828.81 361L721.56 361L721.56 183.47L828.81 183.47L828.81 361Z" />
		<g id="&lt;Group&gt;">
			<path id="&lt;Path&gt;" class="shp7" d="M644.56 292.65C643.22 292.65 642.12 291.55 642.12 290.21C642.12 288.86 643.22 287.77 644.56 287.77C645.91 287.77 647 288.86 647 290.21C647 291.55 645.91 292.65 644.56 292.65Z" />
			<path id="&lt;Path&gt;" class="shp7" d="M615.69 292.65C614.34 292.65 613.25 291.55 613.25 290.21C613.25 288.86 614.34 287.77 615.69 287.77C617.03 287.77 618.12 288.86 618.12 290.21C618.12 291.55 617.03 292.65 615.69 292.65Z" />
			<path id="&lt;Path&gt;" class="shp7" d="M500.19 292.65C498.84 292.65 497.75 291.55 497.75 290.21C497.75 288.86 498.84 287.77 500.19 287.77C501.53 287.77 502.62 288.86 502.62 290.21C502.62 291.55 501.53 292.65 500.19 292.65Z" />
			<path id="&lt;Path&gt;" class="shp7" d="M586.81 292.65C585.47 292.65 584.37 291.55 584.37 290.21C584.37 288.86 585.47 287.77 586.81 287.77C588.16 287.77 589.25 288.86 589.25 290.21C589.25 291.55 588.16 292.65 586.81 292.65Z" />
			<path id="&lt;Path&gt;" class="shp7" d="M557.94 292.65C556.59 292.65 555.5 291.55 555.5 290.21C555.5 288.86 556.59 287.77 557.94 287.77C559.28 287.77 560.37 288.86 560.37 290.21C560.37 291.55 559.28 292.65 557.94 292.65Z" />
			<path id="&lt;Path&gt;" class="shp7" d="M529.06 292.65C527.72 292.65 526.62 291.55 526.62 290.21C526.62 288.86 527.72 287.77 529.06 287.77C530.41 287.77 531.5 288.86 531.5 290.21C531.5 291.55 530.41 292.65 529.06 292.65Z" />
			<path id="&lt;Path&gt;" class="shp7" d="M471.31 292.65C469.97 292.65 468.87 291.55 468.87 290.21C468.87 288.86 469.97 287.77 471.31 287.77C472.66 287.77 473.75 288.86 473.75 290.21C473.75 291.55 472.66 292.65 471.31 292.65Z" />
			<path id="&lt;Path&gt;" class="shp7" d="M442.44 292.65C441.09 292.65 440 291.55 440 290.21C440 288.86 441.09 287.77 442.44 287.77C443.78 287.77 444.87 288.86 444.87 290.21C444.87 291.55 443.78 292.65 442.44 292.65Z" />
			<path id="&lt;Path&gt;" class="shp7" d="M413.56 292.65C412.22 292.65 411.12 291.55 411.12 290.21C411.12 288.86 412.22 287.77 413.56 287.77C414.91 287.77 416 288.86 416 290.21C416 291.55 414.91 292.65 413.56 292.65Z" />
			<path id="&lt;Path&gt;" class="shp7" d="M384.69 292.65C383.34 292.65 382.25 291.55 382.25 290.21C382.25 288.86 383.34 287.77 384.69 287.77C386.03 287.77 387.12 288.86 387.12 290.21C387.12 291.55 386.03 292.65 384.69 292.65Z" />
			<path id="&lt;Path&gt;" class="shp7" d="M269.19 292.65C267.84 292.65 266.75 291.55 266.75 290.21C266.75 288.86 267.84 287.77 269.19 287.77C270.53 287.77 271.62 288.86 271.62 290.21C271.62 291.55 270.53 292.65 269.19 292.65Z" />
			<path id="&lt;Path&gt;" class="shp7" d="M355.81 292.65C354.47 292.65 353.37 291.55 353.37 290.21C353.37 288.86 354.47 287.77 355.81 287.77C357.16 287.77 358.25 288.86 358.25 290.21C358.25 291.55 357.16 292.65 355.81 292.65Z" />
			<path id="&lt;Path&gt;" class="shp7" d="M326.94 292.65C325.59 292.65 324.5 291.55 324.5 290.21C324.5 288.86 325.59 287.77 326.94 287.77C328.28 287.77 329.37 288.86 329.37 290.21C329.37 291.55 328.28 292.65 326.94 292.65Z" />
			<path id="&lt;Path&gt;" class="shp7" d="M298.06 292.65C296.72 292.65 295.62 291.55 295.62 290.21C295.62 288.86 296.72 287.77 298.06 287.77C299.41 287.77 300.5 288.86 300.5 290.21C300.5 291.55 299.41 292.65 298.06 292.65Z" />
			<path id="&lt;Path&gt;" class="shp7" d="M240.31 292.65C238.97 292.65 237.87 291.55 237.87 290.21C237.87 288.86 238.97 287.77 240.31 287.77C241.66 287.77 242.75 288.86 242.75 290.21C242.75 291.55 241.66 292.65 240.31 292.65Z" />
			<path id="&lt;Path&gt;" class="shp7" d="M211.44 292.65C210.09 292.65 209 291.55 209 290.21C209 288.86 210.09 287.77 211.44 287.77C212.78 287.77 213.87 288.86 213.87 290.21C213.87 291.55 212.78 292.65 211.44 292.65Z" />
			<path id="&lt;Path&gt;" class="shp7" d="M182.56 292.65C181.22 292.65 180.12 291.55 180.12 290.21C180.12 288.86 181.22 287.77 182.56 287.77C183.91 287.77 185 288.86 185 290.21C185 291.55 183.91 292.65 182.56 292.65Z" />
			<path id="&lt;Path&gt;" class="shp7" d="M153.69 292.65C152.34 292.65 151.25 291.55 151.25 290.21C151.25 288.86 152.34 287.77 153.69 287.77C155.03 287.77 156.12 288.86 156.12 290.21C156.12 291.55 155.03 292.65 153.69 292.65Z" />
			<path id="&lt;Path&gt;" class="shp7" d="M38.19 292.65C36.84 292.65 35.75 291.55 35.75 290.21C35.75 288.86 36.84 287.77 38.19 287.77C39.53 287.77 40.62 288.86 40.62 290.21C40.62 291.55 39.53 292.65 38.19 292.65Z" />
			<path id="&lt;Path&gt;" class="shp7" d="M124.81 292.65C123.47 292.65 122.37 291.55 122.37 290.21C122.37 288.86 123.47 287.77 124.81 287.77C126.16 287.77 127.25 288.86 127.25 290.21C127.25 291.55 126.16 292.65 124.81 292.65Z" />
			<path id="&lt;Path&gt;" class="shp7" d="M95.94 292.65C94.59 292.65 93.5 291.55 93.5 290.21C93.5 288.86 94.59 287.77 95.94 287.77C97.28 287.77 98.37 288.86 98.37 290.21C98.37 291.55 97.28 292.65 95.94 292.65Z" />
			<path id="&lt;Path&gt;" class="shp7" d="M67.06 292.65C65.72 292.65 64.62 291.55 64.62 290.21C64.62 288.86 65.72 287.77 67.06 287.77C68.41 287.77 69.5 288.86 69.5 290.21C69.5 291.55 68.41 292.65 67.06 292.65Z" />
			<g id="&lt;Group&gt;">
				<path id="&lt;Path&gt;" class="shp8" d="M11.75 280.47L2 290.22" />
				<path id="&lt;Path&gt;" class="shp8" d="M11.75 299.94L2 290.19" />
			</g>
		</g>
		<path id="&lt;Path&gt;" class="shp3" d="M906.56 287.77C907.91 287.77 909 288.86 909 290.21C909 291.55 907.91 292.65 906.56 292.65C905.22 292.65 904.12 291.55 904.12 290.21C904.12 288.86 905.22 287.77 906.56 287.77Z" />
		<path id="&lt;Path&gt;" class="shp3" d="M935.44 287.77C936.78 287.77 937.87 288.86 937.87 290.21C937.87 291.55 936.78 292.65 935.44 292.65C934.09 292.65 933 291.55 933 290.21C933 288.86 934.09 287.77 935.44 287.77Z" />
		<path id="&lt;Path&gt;" class="shp3" d="M1050.94 287.77C1052.28 287.77 1053.37 288.86 1053.37 290.21C1053.37 291.55 1052.28 292.65 1050.94 292.65C1049.59 292.65 1048.5 291.55 1048.5 290.21C1048.5 288.86 1049.59 287.77 1050.94 287.77Z" />
		<path id="&lt;Path&gt;" class="shp3" d="M964.31 287.77C965.66 287.77 966.75 288.86 966.75 290.21C966.75 291.55 965.66 292.65 964.31 292.65C962.97 292.65 961.87 291.55 961.87 290.21C961.87 288.86 962.97 287.77 964.31 287.77Z" />
		<path id="&lt;Path&gt;" class="shp3" d="M993.19 287.77C994.53 287.77 995.62 288.86 995.62 290.21C995.62 291.55 994.53 292.65 993.19 292.65C991.84 292.65 990.75 291.55 990.75 290.21C990.75 288.86 991.84 287.77 993.19 287.77Z" />
		<path id="&lt;Path&gt;" class="shp3" d="M1022.06 287.77C1023.41 287.77 1024.5 288.86 1024.5 290.21C1024.5 291.55 1023.41 292.65 1022.06 292.65C1020.72 292.65 1019.62 291.55 1019.62 290.21C1019.62 288.86 1020.72 287.77 1022.06 287.77Z" />
		<path id="&lt;Path&gt;" class="shp3" d="M1079.81 287.77C1081.16 287.77 1082.25 288.86 1082.25 290.21C1082.25 291.55 1081.16 292.65 1079.81 292.65C1078.47 292.65 1077.37 291.55 1077.37 290.21C1077.37 288.86 1078.47 287.77 1079.81 287.77Z" />
		<path id="&lt;Path&gt;" class="shp3" d="M1108.69 287.77C1110.03 287.77 1111.12 288.86 1111.12 290.21C1111.12 291.55 1110.03 292.65 1108.69 292.65C1107.34 292.65 1106.25 291.55 1106.25 290.21C1106.25 288.86 1107.34 287.77 1108.69 287.77Z" />
		<path id="&lt;Path&gt;" class="shp3" d="M1137.56 287.77C1138.91 287.77 1140 288.86 1140 290.21C1140 291.55 1138.91 292.65 1137.56 292.65C1136.22 292.65 1135.12 291.55 1135.12 290.21C1135.12 288.86 1136.22 287.77 1137.56 287.77Z" />
		<path id="&lt;Path&gt;" class="shp3" d="M1166.44 287.77C1167.78 287.77 1168.87 288.86 1168.87 290.21C1168.87 291.55 1167.78 292.65 1166.44 292.65C1165.09 292.65 1164 291.55 1164 290.21C1164 288.86 1165.09 287.77 1166.44 287.77Z" />
		<path id="&lt;Path&gt;" class="shp3" d="M1281.94 287.77C1283.28 287.77 1284.37 288.86 1284.37 290.21C1284.37 291.55 1283.28 292.65 1281.94 292.65C1280.59 292.65 1279.5 291.55 1279.5 290.21C1279.5 288.86 1280.59 287.77 1281.94 287.77Z" />
		<path id="&lt;Path&gt;" class="shp3" d="M1195.31 287.77C1196.66 287.77 1197.75 288.86 1197.75 290.21C1197.75 291.55 1196.66 292.65 1195.31 292.65C1193.97 292.65 1192.87 291.55 1192.87 290.21C1192.87 288.86 1193.97 287.77 1195.31 287.77Z" />
		<path id="&lt;Path&gt;" class="shp3" d="M1224.19 287.77C1225.53 287.77 1226.62 288.86 1226.62 290.21C1226.62 291.55 1225.53 292.65 1224.19 292.65C1222.84 292.65 1221.75 291.55 1221.75 290.21C1221.75 288.86 1222.84 287.77 1224.19 287.77Z" />
		<path id="&lt;Path&gt;" class="shp3" d="M1253.06 287.77C1254.41 287.77 1255.5 288.86 1255.5 290.21C1255.5 291.55 1254.41 292.65 1253.06 292.65C1251.72 292.65 1250.62 291.55 1250.62 290.21C1250.62 288.86 1251.72 287.77 1253.06 287.77Z" />
		<path id="&lt;Path&gt;" class="shp3" d="M1310.81 287.77C1312.16 287.77 1313.25 288.86 1313.25 290.21C1313.25 291.55 1312.16 292.65 1310.81 292.65C1309.47 292.65 1308.37 291.55 1308.37 290.21C1308.37 288.86 1309.47 287.77 1310.81 287.77Z" />
		<path id="&lt;Path&gt;" class="shp3" d="M1339.69 287.77C1341.03 287.77 1342.12 288.86 1342.12 290.21C1342.12 291.55 1341.03 292.65 1339.69 292.65C1338.34 292.65 1337.25 291.55 1337.25 290.21C1337.25 288.86 1338.34 287.77 1339.69 287.77Z" />
		<path id="&lt;Path&gt;" class="shp3" d="M1368.56 287.77C1369.91 287.77 1371 288.86 1371 290.21C1371 291.55 1369.91 292.65 1368.56 292.65C1367.22 292.65 1366.12 291.55 1366.12 290.21C1366.12 288.86 1367.22 287.77 1368.56 287.77Z" />
		<path id="&lt;Path&gt;" class="shp3" d="M1397.44 287.77C1398.78 287.77 1399.87 288.86 1399.87 290.21C1399.87 291.55 1398.78 292.65 1397.44 292.65C1396.09 292.65 1395 291.55 1395 290.21C1395 288.86 1396.09 287.77 1397.44 287.77Z" />
		<path id="&lt;Path&gt;" class="shp3" d="M1512.94 287.77C1514.28 287.77 1515.37 288.86 1515.37 290.21C1515.37 291.55 1514.28 292.65 1512.94 292.65C1511.59 292.65 1510.5 291.55 1510.5 290.21C1510.5 288.86 1511.59 287.77 1512.94 287.77Z" />
		<path id="&lt;Path&gt;" class="shp3" d="M1426.31 287.77C1427.66 287.77 1428.75 288.86 1428.75 290.21C1428.75 291.55 1427.66 292.65 1426.31 292.65C1424.97 292.65 1423.87 291.55 1423.87 290.21C1423.87 288.86 1424.97 287.77 1426.31 287.77Z" />
		<path id="&lt;Path&gt;" class="shp3" d="M1455.19 287.77C1456.53 287.77 1457.62 288.86 1457.62 290.21C1457.62 291.55 1456.53 292.65 1455.19 292.65C1453.84 292.65 1452.75 291.55 1452.75 290.21C1452.75 288.86 1453.84 287.77 1455.19 287.77Z" />
		<path id="&lt;Path&gt;" class="shp3" d="M1484.06 287.77C1485.41 287.77 1486.5 288.86 1486.5 290.21C1486.5 291.55 1485.41 292.65 1484.06 292.65C1482.72 292.65 1481.62 291.55 1481.62 290.21C1481.62 288.86 1482.72 287.77 1484.06 287.77Z" />
		<g id="&lt;Group&gt;">
			<path id="&lt;Path&gt;" class="shp4" d="M1539.37 299.94L1549.12 290.19" />
			<path id="&lt;Path&gt;" class="shp4" d="M1539.37 280.47L1549.12 290.22" />
		</g>
		<g id="&lt;Group&gt;">
			<path id="&lt;Path&gt;" class="shp5" d="M778 3.24C778 4.59 776.91 5.68 775.56 5.68C774.22 5.68 773.12 4.59 773.12 3.24C773.12 1.89 774.22 0.8 775.56 0.8C776.91 0.8 778 1.89 778 3.24Z" />
			<path id="&lt;Path&gt;" class="shp5" d="M778 118.74C778 120.09 776.91 121.18 775.56 121.18C774.22 121.18 773.12 120.09 773.12 118.74C773.12 117.39 774.22 116.3 775.56 116.3C776.91 116.3 778 117.39 778 118.74Z" />
			<path id="&lt;Path&gt;" class="shp5" d="M778 32.11C778 33.46 776.91 34.55 775.56 34.55C774.22 34.55 773.12 33.46 773.12 32.11C773.12 30.77 774.22 29.68 775.56 29.68C776.91 29.68 778 30.77 778 32.11Z" />
			<path id="&lt;Path&gt;" class="shp5" d="M778 60.99C778 62.34 776.91 63.43 775.56 63.43C774.22 63.43 773.12 62.34 773.12 60.99C773.12 59.64 774.22 58.55 775.56 58.55C776.91 58.55 778 59.64 778 60.99Z" />
			<path id="&lt;Path&gt;" class="shp5" d="M778 89.86C778 91.21 776.91 92.3 775.56 92.3C774.22 92.3 773.12 91.21 773.12 89.86C773.12 88.52 774.22 87.43 775.56 87.43C776.91 87.43 778 88.52 778 89.86Z" />
		</g>
		<g id="&lt;Group&gt;">
			<path id="&lt;Path&gt;" class="shp6" d="M765.83 133.93L775.58 143.68" />
			<path id="&lt;Path&gt;" class="shp6" d="M785.3 133.93L775.55 143.68" />
		</g>
	</g>
</svg>