<svg version="1.2" baseProfile="tiny-ps" xmlns="http://www.w3.org/2000/svg" viewBox="0 0 592 592" width="125" height="125">
	<title>Local Property Exper</title>
	<style>
		tspan { white-space:pre }
		.shp12 { fill: none;stroke: #128bd6;stroke-linecap:round;stroke-width: 12 }
		.shp9 { opacity: 0.102;fill: none;stroke: #128bd6;stroke-linecap:round;stroke-width: 60 }
		.shp10 { fill: none;stroke: #0fccd8;stroke-linecap:round;stroke-width: 3 }
		.shp11 { fill: none;stroke: #0fccd8;stroke-linecap:round;stroke-linejoin:round;stroke-width: 3 }
	</style>
	<g id="Local Property Exper">
		<path id="&lt;Path&gt;" class="shp12" d="M527 296C527 423.58 423.58 527 296 527C168.42 527 65 423.58 65 296C65 168.42 168.42 65 296 65C423.58 65 527 168.42 527 296Z" />
		<path id="&lt;Path&gt;" class="shp9" d="M561.35 296C561.35 442.55 442.55 561.35 296 561.35C149.45 561.35 30.65 442.55 30.65 296C30.65 149.45 149.45 30.65 296 30.65C442.55 30.65 561.35 149.45 561.35 296Z" />
		<g id="&lt;Group&gt;">
			<g id="&lt;Group&gt;">
				<path id="&lt;Path&gt;" class="shp10" d="M426.95 272.26L426.95 258.66L426.95 247.51C426.95 226.33 408.32 209.16 385.34 209.16C362.36 209.16 343.72 226.33 343.72 247.51L343.72 258.66L343.72 272.26" />
				<path id="&lt;Path&gt;" class="shp11" d="M420.45 267.89L420.45 279.85L420.45 289.65C420.45 308.28 404.73 323.38 385.34 323.38C365.95 323.38 350.22 308.28 350.22 289.65L350.22 279.85L350.22 267.89C355.31 237.95 364.86 225.98 378.86 231.98C392.86 237.98 403.86 237.98 411.86 231.98L420.45 267.89Z" />
				<path id="&lt;Path&gt;" class="shp10" d="M385.34 289.69L385.34 278.67" />
				<path id="&lt;Path&gt;" class="shp10" d="M385.34 289.69L389.89 289.69" />
				<path id="&lt;Path&gt;" class="shp10" d="M349.95 289.67C344.42 289.67 339.94 285.19 339.94 279.66C339.94 274.13 344.42 269.65 349.95 269.65" />
				<path id="&lt;Path&gt;" class="shp10" d="M420.45 269.65C425.98 269.65 430.47 274.13 430.47 279.66C430.47 285.19 425.98 289.67 420.45 289.67" />
				<path id="&lt;Path&gt;" class="shp11" d="M370.34 320.57L370.34 333.69" />
				<path id="&lt;Path&gt;" class="shp11" d="M400.34 320.57L400.34 333.69" />
				<path id="&lt;Path&gt;" class="shp11" d="M391.34 394.76L326.45 394.76C324.36 371.97 329.85 361.86 335.67 356.91C340.09 353.16 345.08 352.05 356.21 344.41C362.25 340.27 366.9 336.39 369.95 333.69" />
				<path id="&lt;Path&gt;" class="shp11" d="M379.34 394.76L444.22 394.76C446.31 371.97 440.83 361.86 435 356.91C430.59 353.16 425.59 352.05 414.47 344.41C408.43 340.27 403.78 336.39 400.72 333.69" />
				<path id="&lt;Path&gt;" class="shp10" d="M353.22 347.25C362.03 349.64 371.25 351.99 385.9 351.92C400.02 351.87 408.83 349.58 417.45 347.25" />
			</g>
			<g id="&lt;Group&gt;">
				<path id="&lt;Path&gt;" class="shp10" d="M165.32 271.61C164.32 265.64 158.78 232.67 182.2 214.35C193.63 205.41 200.94 204.53 207.43 204.59" />
				<path id="&lt;Path&gt;" class="shp10" d="M248.78 271.61C249.77 265.64 255.31 232.67 231.89 214.35C220.46 205.41 213.15 204.53 206.66 204.59" />
				<path id="&lt;Path&gt;" class="shp11" d="M241.78 267.89L241.78 279.85L241.78 289.65C241.78 308.28 226.05 323.38 206.66 323.38C187.27 323.38 171.55 308.28 171.55 289.65L171.55 279.85L171.55 267.89C175.82 248.92 185.27 239.86 199.89 240.71C214.51 241.55 225.26 239.14 232.15 233.48L241.78 267.89Z" />
				<path id="&lt;Path&gt;" class="shp10" d="M206.66 289.69L206.66 278.67" />
				<path id="&lt;Path&gt;" class="shp10" d="M206.66 289.69L211.21 289.69" />
				<path id="&lt;Path&gt;" class="shp10" d="M165.32 271.61C166.98 270.38 169.04 269.65 171.28 269.65" />
				<path id="&lt;Path&gt;" class="shp10" d="M171.28 289.67C165.75 289.67 161.26 285.19 161.26 279.66C161.26 276.36 162.86 273.44 165.32 271.61" />
				<path id="&lt;Path&gt;" class="shp10" d="M241.78 269.65C247.31 269.65 251.79 274.13 251.79 279.66C251.79 285.19 247.31 289.67 241.78 289.67" />
				<path id="&lt;Path&gt;" class="shp11" d="M191.66 320.57L191.66 333.69" />
				<path id="&lt;Path&gt;" class="shp11" d="M221.66 320.57L221.66 333.69" />
				<path id="&lt;Path&gt;" class="shp11" d="M212.66 394.76L147.78 394.76C145.69 371.97 151.17 361.86 157 356.91C161.41 353.16 166.41 352.05 177.53 344.41C183.57 340.27 188.22 336.39 191.28 333.69" />
				<path id="&lt;Path&gt;" class="shp11" d="M200.66 394.76L265.55 394.76C267.64 371.97 262.15 361.86 256.33 356.91C251.91 353.16 246.92 352.05 235.79 344.41C229.75 340.27 225.1 336.39 222.05 333.69" />
				<path id="&lt;Path&gt;" class="shp10" d="M174.55 347.11C183.36 349.5 192.57 351.85 207.22 351.78C221.34 351.73 230.15 349.44 238.78 347.11" />
				<g id="&lt;Group&gt;">
					<path id="&lt;Path&gt;" class="shp10" d="M194.29 205.62C195.87 200.04 199.99 197.24 206.66 197.24" />
					<path id="&lt;Path&gt;" class="shp10" d="M219.04 205.62C217.45 200.04 213.33 197.24 206.66 197.24" />
				</g>
			</g>
		</g>
	</g>
</svg>