<svg version="1.2" baseProfile="tiny-ps" xmlns="http://www.w3.org/2000/svg" viewBox="0 0 27 25" width="27" height="25">
	<title>Page 1</title>
	<defs>
		<clipPath clipPathUnits="userSpaceOnUse" id="cp1">
			<path d="M0 0L27 0L27 25L0 25Z" />
		</clipPath>
	</defs>
	<g id="Page 1" clip-path="url(#cp1)">
		<path id="Path 1" class="shp29" d="M26.67 3.9C25.69 4.33 24.63 4.63 23.53 4.76C24.66 4.08 25.52 3.01 25.94 1.73C24.88 2.36 23.71 2.81 22.45 3.06C21.46 2 20.04 1.33 18.46 1.33C15.45 1.33 13 3.78 13 6.8C13 7.23 13.05 7.65 13.14 8.05C8.59 7.82 4.56 5.65 1.86 2.33C1.38 3.14 1.11 4.08 1.11 5.09C1.11 6.98 2.08 8.66 3.55 9.63C2.65 9.61 1.81 9.36 1.07 8.95L1.07 9.02C1.07 11.67 2.96 13.88 5.46 14.39C5 14.51 4.52 14.57 4.02 14.57C3.67 14.57 3.33 14.54 2.99 14.48C3.69 16.65 5.7 18.23 8.1 18.28C6.22 19.74 3.86 20.61 1.3 20.61C0.86 20.61 0.43 20.59 0 20.54C2.42 22.09 5.3 23 8.39 23C18.45 23 23.95 14.66 23.95 7.44L23.93 6.73C25.01 5.96 25.94 5 26.67 3.9Z" />
	</g>
</svg>